<svg width="32" height="32" viewBox="0 0 32 32" fill="none" xmlns="http://www.w3.org/2000/svg">
<circle cx="16" cy="16" r="16" fill="#181743"/>
<path d="M15.8438 7.82226C15.6308 7.86974 15.4216 7.94059 15.22 8.03485C11.7342 9.66413 9.5 14.2202 9.5 18.1246C9.5 21.8346 12.2855 24.8823 15.8438 25.2191V7.82226Z" fill="white"/>
<path d="M17.1562 25.2191C20.7145 24.8823 23.5 21.8346 23.5 18.1246C23.5 17.7694 23.4815 17.4087 23.4452 17.0453L17.1562 23.3343V25.2191Z" fill="white"/>
<path d="M21.9772 12.2822C21.6369 11.648 21.2444 11.0471 20.805 10.4981L17.1562 14.1468V17.1031L21.9772 12.2822Z" fill="white"/>
<path d="M19.9198 9.52702C19.2765 8.90994 18.5596 8.39921 17.78 8.03485C17.5784 7.94059 17.3692 7.86974 17.1562 7.82226V12.2907L19.9198 9.52702Z" fill="white"/>
<path d="M22.5693 13.5462L17.1562 18.9593V21.4781L23.0625 15.5719L23.1779 15.4565C23.0258 14.811 22.8215 14.1693 22.5693 13.5462Z" fill="white"/>
</svg>
